<mxfile host="app.diagrams.net" modified="2023-07-17T07:34:03.544Z" agent="Mozilla/5.0 (Windows NT 10.0; Win64; x64) AppleWebKit/537.36 (KHTML, like Gecko) Chrome/114.0.0.0 Safari/537.36 Edg/114.0.1823.82" etag="Dt87QM35cPmzQaQxlI1M" version="21.6.1" type="device">
  <diagram id="R2lEEEUBdFMjLlhIrx00" name="Page-1">
    <mxGraphModel dx="996" dy="573" grid="1" gridSize="10" guides="0" tooltips="1" connect="1" arrows="1" fold="1" page="1" pageScale="1" pageWidth="850" pageHeight="1100" math="0" shadow="0" extFonts="Permanent Marker^https://fonts.googleapis.com/css?family=Permanent+Marker">
      <root>
        <mxCell id="0" />
        <mxCell id="1" parent="0" />
        <mxCell id="dTxI5dDR73npywH-p4hO-19" value="" style="edgeStyle=elbowEdgeStyle;fontSize=12;html=1;endArrow=ERmandOne;startArrow=none;rounded=0;exitX=0.75;exitY=0;exitDx=0;exitDy=0;elbow=vertical;entryX=0.5;entryY=1;entryDx=0;entryDy=0;startFill=0;endFill=0;" parent="1" source="n3k5pTCZ1LAgwSPkUt6G-5" target="dTxI5dDR73npywH-p4hO-30" edge="1">
          <mxGeometry width="100" height="100" relative="1" as="geometry">
            <mxPoint x="622.4264068711927" y="171.7157287525381" as="sourcePoint" />
            <mxPoint x="750" y="110" as="targetPoint" />
          </mxGeometry>
        </mxCell>
        <mxCell id="dTxI5dDR73npywH-p4hO-21" value="" style="edgeStyle=elbowEdgeStyle;fontSize=12;html=1;endArrow=ERoneToMany;startArrow=none;rounded=0;exitX=0;exitY=0.5;exitDx=0;exitDy=0;entryX=1;entryY=0.5;entryDx=0;entryDy=0;startFill=0;" parent="1" source="n3k5pTCZ1LAgwSPkUt6G-11" target="dTxI5dDR73npywH-p4hO-33" edge="1">
          <mxGeometry width="100" height="100" relative="1" as="geometry">
            <mxPoint x="520" y="200" as="sourcePoint" />
            <mxPoint x="420" y="190" as="targetPoint" />
          </mxGeometry>
        </mxCell>
        <mxCell id="dTxI5dDR73npywH-p4hO-22" value="" style="edgeStyle=elbowEdgeStyle;fontSize=12;html=1;endArrow=ERoneToMany;startArrow=none;rounded=0;exitX=1;exitY=0.5;exitDx=0;exitDy=0;entryX=0;entryY=0.5;entryDx=0;entryDy=0;startFill=0;" parent="1" source="n3k5pTCZ1LAgwSPkUt6G-10" target="dTxI5dDR73npywH-p4hO-33" edge="1">
          <mxGeometry width="100" height="100" relative="1" as="geometry">
            <mxPoint x="260" y="160" as="sourcePoint" />
            <mxPoint x="330" y="160" as="targetPoint" />
          </mxGeometry>
        </mxCell>
        <mxCell id="dTxI5dDR73npywH-p4hO-25" value="Order" style="rounded=0;whiteSpace=wrap;html=1;" parent="1" vertex="1">
          <mxGeometry x="100" y="140" width="120" height="60" as="geometry" />
        </mxCell>
        <mxCell id="dTxI5dDR73npywH-p4hO-30" value="Wine Cagetory" style="rounded=0;whiteSpace=wrap;html=1;" parent="1" vertex="1">
          <mxGeometry x="520" y="30" width="90" height="40" as="geometry" />
        </mxCell>
        <mxCell id="dTxI5dDR73npywH-p4hO-31" value="Wine" style="rounded=0;whiteSpace=wrap;html=1;" parent="1" vertex="1">
          <mxGeometry x="590" y="170" width="120" height="60" as="geometry" />
        </mxCell>
        <mxCell id="dTxI5dDR73npywH-p4hO-33" value="Order Product" style="shape=ext;margin=3;double=1;whiteSpace=wrap;html=1;align=center;" parent="1" vertex="1">
          <mxGeometry x="360" y="180" width="100" height="40" as="geometry" />
        </mxCell>
        <mxCell id="8G3KxPDngYe6h84Ui3Jd-6" style="rounded=0;orthogonalLoop=1;jettySize=auto;html=1;entryX=1;entryY=0;entryDx=0;entryDy=0;endArrow=none;endFill=0;" parent="1" source="dTxI5dDR73npywH-p4hO-35" target="dTxI5dDR73npywH-p4hO-31" edge="1">
          <mxGeometry relative="1" as="geometry">
            <mxPoint x="610" y="280" as="targetPoint" />
          </mxGeometry>
        </mxCell>
        <mxCell id="dTxI5dDR73npywH-p4hO-35" value="WineName" style="ellipse;whiteSpace=wrap;html=1;align=center;" parent="1" vertex="1">
          <mxGeometry x="750" y="130" width="80" height="30" as="geometry" />
        </mxCell>
        <mxCell id="8G3KxPDngYe6h84Ui3Jd-5" style="rounded=0;orthogonalLoop=1;jettySize=auto;html=1;entryX=0.877;entryY=-0.017;entryDx=0;entryDy=0;endArrow=none;endFill=0;entryPerimeter=0;" parent="1" source="dTxI5dDR73npywH-p4hO-38" target="dTxI5dDR73npywH-p4hO-31" edge="1">
          <mxGeometry relative="1" as="geometry" />
        </mxCell>
        <mxCell id="dTxI5dDR73npywH-p4hO-38" value="WineID(PK)" style="ellipse;whiteSpace=wrap;html=1;align=center;fontStyle=4;" parent="1" vertex="1">
          <mxGeometry x="740" y="100" width="80" height="30" as="geometry" />
        </mxCell>
        <mxCell id="8G3KxPDngYe6h84Ui3Jd-9" style="rounded=0;orthogonalLoop=1;jettySize=auto;html=1;entryX=1;entryY=0.75;entryDx=0;entryDy=0;endArrow=none;endFill=0;" parent="1" source="VobUMtlbzpRoxm0NPVZj-3" target="dTxI5dDR73npywH-p4hO-31" edge="1">
          <mxGeometry relative="1" as="geometry">
            <mxPoint x="610" y="300" as="targetPoint" />
          </mxGeometry>
        </mxCell>
        <mxCell id="VobUMtlbzpRoxm0NPVZj-3" value="Price" style="ellipse;whiteSpace=wrap;html=1;align=center;" parent="1" vertex="1">
          <mxGeometry x="780" y="250" width="60" height="25" as="geometry" />
        </mxCell>
        <mxCell id="8G3KxPDngYe6h84Ui3Jd-10" style="rounded=0;orthogonalLoop=1;jettySize=auto;html=1;entryX=0.57;entryY=1.037;entryDx=0;entryDy=0;endArrow=none;endFill=0;entryPerimeter=0;exitX=0.5;exitY=0;exitDx=0;exitDy=0;" parent="1" source="VobUMtlbzpRoxm0NPVZj-4" target="dTxI5dDR73npywH-p4hO-31" edge="1">
          <mxGeometry relative="1" as="geometry">
            <mxPoint x="610" y="310" as="targetPoint" />
            <mxPoint x="630" y="320" as="sourcePoint" />
          </mxGeometry>
        </mxCell>
        <mxCell id="VobUMtlbzpRoxm0NPVZj-4" value="Status" style="ellipse;whiteSpace=wrap;html=1;align=center;" parent="1" vertex="1">
          <mxGeometry x="600" y="340" width="70" height="30" as="geometry" />
        </mxCell>
        <mxCell id="8G3KxPDngYe6h84Ui3Jd-26" style="rounded=0;orthogonalLoop=1;jettySize=auto;html=1;entryX=0.75;entryY=1;entryDx=0;entryDy=0;endArrow=none;endFill=0;" parent="1" source="VobUMtlbzpRoxm0NPVZj-5" target="dTxI5dDR73npywH-p4hO-33" edge="1">
          <mxGeometry relative="1" as="geometry" />
        </mxCell>
        <mxCell id="VobUMtlbzpRoxm0NPVZj-5" value="ItemQty" style="ellipse;whiteSpace=wrap;html=1;align=center;" parent="1" vertex="1">
          <mxGeometry x="440" y="260" width="80" height="25" as="geometry" />
        </mxCell>
        <mxCell id="FLPZAjB7GGBSPu404l4g-11" style="rounded=0;orthogonalLoop=1;jettySize=auto;html=1;entryX=1;entryY=0.25;entryDx=0;entryDy=0;endArrow=none;endFill=0;" parent="1" source="VobUMtlbzpRoxm0NPVZj-6" target="dTxI5dDR73npywH-p4hO-31" edge="1">
          <mxGeometry relative="1" as="geometry" />
        </mxCell>
        <mxCell id="VobUMtlbzpRoxm0NPVZj-6" value="Branch" style="ellipse;whiteSpace=wrap;html=1;align=center;" parent="1" vertex="1">
          <mxGeometry x="760" y="170" width="80" height="30" as="geometry" />
        </mxCell>
        <mxCell id="8G3KxPDngYe6h84Ui3Jd-25" style="rounded=0;orthogonalLoop=1;jettySize=auto;html=1;endArrow=none;endFill=0;" parent="1" source="VobUMtlbzpRoxm0NPVZj-7" edge="1">
          <mxGeometry relative="1" as="geometry">
            <mxPoint x="370" y="220" as="targetPoint" />
          </mxGeometry>
        </mxCell>
        <mxCell id="VobUMtlbzpRoxm0NPVZj-7" value="ItemPrice" style="ellipse;whiteSpace=wrap;html=1;align=center;" parent="1" vertex="1">
          <mxGeometry x="300" y="300" width="80" height="30" as="geometry" />
        </mxCell>
        <mxCell id="8G3KxPDngYe6h84Ui3Jd-11" style="rounded=0;orthogonalLoop=1;jettySize=auto;html=1;endArrow=none;endFill=0;entryX=0.75;entryY=1;entryDx=0;entryDy=0;" parent="1" source="VobUMtlbzpRoxm0NPVZj-8" target="dTxI5dDR73npywH-p4hO-31" edge="1">
          <mxGeometry relative="1" as="geometry">
            <mxPoint x="690" y="240" as="targetPoint" />
          </mxGeometry>
        </mxCell>
        <mxCell id="VobUMtlbzpRoxm0NPVZj-8" value="Description" style="ellipse;whiteSpace=wrap;html=1;align=center;" parent="1" vertex="1">
          <mxGeometry x="650" y="290" width="80" height="30" as="geometry" />
        </mxCell>
        <mxCell id="8G3KxPDngYe6h84Ui3Jd-15" style="rounded=0;orthogonalLoop=1;jettySize=auto;html=1;entryX=0;entryY=0.25;entryDx=0;entryDy=0;endArrow=none;endFill=0;" parent="1" source="VobUMtlbzpRoxm0NPVZj-11" target="dTxI5dDR73npywH-p4hO-30" edge="1">
          <mxGeometry relative="1" as="geometry">
            <mxPoint x="440" y="390" as="targetPoint" />
          </mxGeometry>
        </mxCell>
        <mxCell id="VobUMtlbzpRoxm0NPVZj-11" value="cage_order" style="ellipse;whiteSpace=wrap;html=1;align=center;" parent="1" vertex="1">
          <mxGeometry x="370" y="20" width="90" height="30" as="geometry" />
        </mxCell>
        <mxCell id="8G3KxPDngYe6h84Ui3Jd-22" style="rounded=0;orthogonalLoop=1;jettySize=auto;html=1;endArrow=none;endFill=0;" parent="1" source="VobUMtlbzpRoxm0NPVZj-12" edge="1">
          <mxGeometry relative="1" as="geometry">
            <mxPoint x="120" y="200" as="targetPoint" />
          </mxGeometry>
        </mxCell>
        <mxCell id="VobUMtlbzpRoxm0NPVZj-12" value="receiveDay" style="ellipse;whiteSpace=wrap;html=1;align=center;" parent="1" vertex="1">
          <mxGeometry x="100" y="320" width="80" height="30" as="geometry" />
        </mxCell>
        <mxCell id="8G3KxPDngYe6h84Ui3Jd-23" style="rounded=0;orthogonalLoop=1;jettySize=auto;html=1;entryX=0.827;entryY=-0.023;entryDx=0;entryDy=0;endArrow=none;endFill=0;entryPerimeter=0;" parent="1" source="VobUMtlbzpRoxm0NPVZj-13" target="dTxI5dDR73npywH-p4hO-25" edge="1">
          <mxGeometry relative="1" as="geometry" />
        </mxCell>
        <mxCell id="VobUMtlbzpRoxm0NPVZj-13" value="OrderDay" style="ellipse;whiteSpace=wrap;html=1;align=center;" parent="1" vertex="1">
          <mxGeometry x="212.5" y="15" width="80" height="30" as="geometry" />
        </mxCell>
        <mxCell id="8G3KxPDngYe6h84Ui3Jd-24" style="rounded=0;orthogonalLoop=1;jettySize=auto;html=1;entryX=1;entryY=0;entryDx=0;entryDy=0;endArrow=none;endFill=0;" parent="1" source="VobUMtlbzpRoxm0NPVZj-15" target="dTxI5dDR73npywH-p4hO-25" edge="1">
          <mxGeometry relative="1" as="geometry" />
        </mxCell>
        <mxCell id="VobUMtlbzpRoxm0NPVZj-15" value="OrderID(PK)" style="ellipse;whiteSpace=wrap;html=1;align=center;fontStyle=4;" parent="1" vertex="1">
          <mxGeometry x="260" y="55" width="80" height="30" as="geometry" />
        </mxCell>
        <mxCell id="8G3KxPDngYe6h84Ui3Jd-13" style="rounded=0;orthogonalLoop=1;jettySize=auto;html=1;entryX=1;entryY=0.75;entryDx=0;entryDy=0;endArrow=none;endFill=0;" parent="1" source="8G3KxPDngYe6h84Ui3Jd-1" target="dTxI5dDR73npywH-p4hO-30" edge="1">
          <mxGeometry relative="1" as="geometry" />
        </mxCell>
        <mxCell id="8G3KxPDngYe6h84Ui3Jd-1" value="Cagetory name" style="ellipse;whiteSpace=wrap;html=1;align=center;" parent="1" vertex="1">
          <mxGeometry x="660" y="60" width="100" height="30" as="geometry" />
        </mxCell>
        <mxCell id="8G3KxPDngYe6h84Ui3Jd-12" style="rounded=0;orthogonalLoop=1;jettySize=auto;html=1;entryX=1;entryY=0.5;entryDx=0;entryDy=0;endArrow=none;endFill=0;" parent="1" source="8G3KxPDngYe6h84Ui3Jd-4" target="dTxI5dDR73npywH-p4hO-30" edge="1">
          <mxGeometry relative="1" as="geometry" />
        </mxCell>
        <mxCell id="8G3KxPDngYe6h84Ui3Jd-4" value="Wine&lt;br style=&quot;border-color: var(--border-color);&quot;&gt;CagetoyID(PK)" style="ellipse;whiteSpace=wrap;html=1;align=center;fontStyle=4;" parent="1" vertex="1">
          <mxGeometry x="650" y="10" width="100" height="40" as="geometry" />
        </mxCell>
        <mxCell id="rmuJf8ZQ7ZaGDNXfYBwP-2" style="rounded=0;orthogonalLoop=1;jettySize=auto;html=1;endArrow=none;endFill=0;exitX=0.5;exitY=0;exitDx=0;exitDy=0;" parent="1" source="rmuJf8ZQ7ZaGDNXfYBwP-1" edge="1">
          <mxGeometry relative="1" as="geometry">
            <mxPoint x="710" y="230" as="targetPoint" />
            <mxPoint x="870" y="420" as="sourcePoint" />
          </mxGeometry>
        </mxCell>
        <mxCell id="rmuJf8ZQ7ZaGDNXfYBwP-1" value="Capacity" style="ellipse;whiteSpace=wrap;html=1;align=center;" parent="1" vertex="1">
          <mxGeometry x="760" y="360" width="80" height="30" as="geometry" />
        </mxCell>
        <mxCell id="rmuJf8ZQ7ZaGDNXfYBwP-5" style="edgeStyle=orthogonalEdgeStyle;rounded=0;orthogonalLoop=1;jettySize=auto;html=1;exitX=0.5;exitY=1;exitDx=0;exitDy=0;" parent="1" edge="1">
          <mxGeometry relative="1" as="geometry">
            <mxPoint x="440" y="390" as="sourcePoint" />
            <mxPoint x="440" y="390" as="targetPoint" />
          </mxGeometry>
        </mxCell>
        <mxCell id="Azhsq3GnwWCv2wDgY1An-1" style="edgeStyle=orthogonalEdgeStyle;rounded=0;orthogonalLoop=1;jettySize=auto;html=1;exitX=0.5;exitY=1;exitDx=0;exitDy=0;" parent="1" edge="1">
          <mxGeometry relative="1" as="geometry">
            <mxPoint x="350" y="397.5" as="sourcePoint" />
            <mxPoint x="350" y="397.5" as="targetPoint" />
          </mxGeometry>
        </mxCell>
        <mxCell id="Azhsq3GnwWCv2wDgY1An-3" style="rounded=0;orthogonalLoop=1;jettySize=auto;html=1;entryX=0.917;entryY=1.05;entryDx=0;entryDy=0;entryPerimeter=0;endArrow=none;endFill=0;exitX=0.5;exitY=0;exitDx=0;exitDy=0;" parent="1" source="Azhsq3GnwWCv2wDgY1An-2" target="dTxI5dDR73npywH-p4hO-31" edge="1">
          <mxGeometry relative="1" as="geometry">
            <mxPoint x="664.5346366677636" y="279.02051890242" as="sourcePoint" />
            <mxPoint x="660" y="230" as="targetPoint" />
          </mxGeometry>
        </mxCell>
        <mxCell id="Azhsq3GnwWCv2wDgY1An-2" value="Concentration" style="ellipse;whiteSpace=wrap;html=1;align=center;" parent="1" vertex="1">
          <mxGeometry x="700" y="320" width="80" height="40" as="geometry" />
        </mxCell>
        <mxCell id="Azhsq3GnwWCv2wDgY1An-16" style="rounded=0;orthogonalLoop=1;jettySize=auto;html=1;endArrow=none;endFill=0;entryX=1;entryY=1;entryDx=0;entryDy=0;exitX=0.5;exitY=0;exitDx=0;exitDy=0;" parent="1" source="Azhsq3GnwWCv2wDgY1An-15" target="dTxI5dDR73npywH-p4hO-31" edge="1">
          <mxGeometry relative="1" as="geometry">
            <mxPoint x="685" y="320" as="sourcePoint" />
            <mxPoint x="650" y="240" as="targetPoint" />
          </mxGeometry>
        </mxCell>
        <mxCell id="Azhsq3GnwWCv2wDgY1An-15" value="origin" style="ellipse;whiteSpace=wrap;html=1;align=center;" parent="1" vertex="1">
          <mxGeometry x="770" y="290" width="70" height="35" as="geometry" />
        </mxCell>
        <mxCell id="Azhsq3GnwWCv2wDgY1An-24" style="rounded=0;orthogonalLoop=1;jettySize=auto;html=1;entryX=0.75;entryY=0;entryDx=0;entryDy=0;endArrow=none;endFill=0;" parent="1" source="Azhsq3GnwWCv2wDgY1An-23" target="dTxI5dDR73npywH-p4hO-25" edge="1">
          <mxGeometry relative="1" as="geometry" />
        </mxCell>
        <mxCell id="Azhsq3GnwWCv2wDgY1An-23" value="Note" style="ellipse;whiteSpace=wrap;html=1;align=center;" parent="1" vertex="1">
          <mxGeometry x="130" y="30" width="60" height="30" as="geometry" />
        </mxCell>
        <mxCell id="Azhsq3GnwWCv2wDgY1An-25" style="edgeStyle=orthogonalEdgeStyle;rounded=0;orthogonalLoop=1;jettySize=auto;html=1;exitX=0.5;exitY=1;exitDx=0;exitDy=0;" parent="1" source="VobUMtlbzpRoxm0NPVZj-3" target="VobUMtlbzpRoxm0NPVZj-3" edge="1">
          <mxGeometry relative="1" as="geometry" />
        </mxCell>
        <mxCell id="Azhsq3GnwWCv2wDgY1An-27" style="rounded=0;orthogonalLoop=1;jettySize=auto;html=1;entryX=1;entryY=0.5;entryDx=0;entryDy=0;endArrow=none;endFill=0;" parent="1" source="Azhsq3GnwWCv2wDgY1An-26" target="dTxI5dDR73npywH-p4hO-31" edge="1">
          <mxGeometry relative="1" as="geometry" />
        </mxCell>
        <mxCell id="Azhsq3GnwWCv2wDgY1An-26" value="Image" style="ellipse;whiteSpace=wrap;html=1;align=center;" parent="1" vertex="1">
          <mxGeometry x="780" y="210" width="60" height="30" as="geometry" />
        </mxCell>
        <mxCell id="Azhsq3GnwWCv2wDgY1An-30" style="edgeStyle=orthogonalEdgeStyle;rounded=0;orthogonalLoop=1;jettySize=auto;html=1;exitX=0.5;exitY=1;exitDx=0;exitDy=0;" parent="1" source="Azhsq3GnwWCv2wDgY1An-26" target="Azhsq3GnwWCv2wDgY1An-26" edge="1">
          <mxGeometry relative="1" as="geometry" />
        </mxCell>
        <mxCell id="Azhsq3GnwWCv2wDgY1An-37" value="User" style="whiteSpace=wrap;html=1;align=center;" parent="1" vertex="1">
          <mxGeometry x="130" y="420" width="100" height="40" as="geometry" />
        </mxCell>
        <mxCell id="Azhsq3GnwWCv2wDgY1An-38" value="News" style="whiteSpace=wrap;html=1;align=center;" parent="1" vertex="1">
          <mxGeometry x="540" y="490" width="100" height="40" as="geometry" />
        </mxCell>
        <mxCell id="Azhsq3GnwWCv2wDgY1An-42" style="rounded=0;orthogonalLoop=1;jettySize=auto;html=1;entryX=0;entryY=0.25;entryDx=0;entryDy=0;endArrow=none;endFill=0;" parent="1" source="Azhsq3GnwWCv2wDgY1An-39" target="Azhsq3GnwWCv2wDgY1An-37" edge="1">
          <mxGeometry relative="1" as="geometry" />
        </mxCell>
        <mxCell id="Azhsq3GnwWCv2wDgY1An-39" value="username" style="ellipse;whiteSpace=wrap;html=1;align=center;" parent="1" vertex="1">
          <mxGeometry x="40" y="460" width="100" height="40" as="geometry" />
        </mxCell>
        <mxCell id="Azhsq3GnwWCv2wDgY1An-43" style="rounded=0;orthogonalLoop=1;jettySize=auto;html=1;entryX=0.436;entryY=1.055;entryDx=0;entryDy=0;entryPerimeter=0;endArrow=none;endFill=0;" parent="1" source="Azhsq3GnwWCv2wDgY1An-40" target="Azhsq3GnwWCv2wDgY1An-37" edge="1">
          <mxGeometry relative="1" as="geometry" />
        </mxCell>
        <mxCell id="Azhsq3GnwWCv2wDgY1An-40" value="UserID" style="ellipse;whiteSpace=wrap;html=1;align=center;fontStyle=4;" parent="1" vertex="1">
          <mxGeometry x="60" y="540" width="100" height="40" as="geometry" />
        </mxCell>
        <mxCell id="Azhsq3GnwWCv2wDgY1An-44" style="rounded=0;orthogonalLoop=1;jettySize=auto;html=1;entryX=1;entryY=0.5;entryDx=0;entryDy=0;endArrow=none;endFill=0;" parent="1" source="Azhsq3GnwWCv2wDgY1An-41" target="Azhsq3GnwWCv2wDgY1An-37" edge="1">
          <mxGeometry relative="1" as="geometry" />
        </mxCell>
        <mxCell id="Azhsq3GnwWCv2wDgY1An-41" value="password" style="ellipse;whiteSpace=wrap;html=1;align=center;" parent="1" vertex="1">
          <mxGeometry x="260" y="540" width="100" height="40" as="geometry" />
        </mxCell>
        <mxCell id="Azhsq3GnwWCv2wDgY1An-47" style="rounded=0;orthogonalLoop=1;jettySize=auto;html=1;entryX=1;entryY=0.5;entryDx=0;entryDy=0;endArrow=none;endFill=0;" parent="1" source="Azhsq3GnwWCv2wDgY1An-45" target="Azhsq3GnwWCv2wDgY1An-38" edge="1">
          <mxGeometry relative="1" as="geometry" />
        </mxCell>
        <mxCell id="Azhsq3GnwWCv2wDgY1An-45" value="Header" style="ellipse;whiteSpace=wrap;html=1;align=center;" parent="1" vertex="1">
          <mxGeometry x="700" y="480" width="100" height="40" as="geometry" />
        </mxCell>
        <mxCell id="Azhsq3GnwWCv2wDgY1An-49" style="rounded=0;orthogonalLoop=1;jettySize=auto;html=1;entryX=1;entryY=1;entryDx=0;entryDy=0;endArrow=none;endFill=0;" parent="1" source="Azhsq3GnwWCv2wDgY1An-46" target="Azhsq3GnwWCv2wDgY1An-38" edge="1">
          <mxGeometry relative="1" as="geometry" />
        </mxCell>
        <mxCell id="Azhsq3GnwWCv2wDgY1An-46" value="context" style="ellipse;whiteSpace=wrap;html=1;align=center;" parent="1" vertex="1">
          <mxGeometry x="700" y="550" width="95" height="40" as="geometry" />
        </mxCell>
        <mxCell id="Azhsq3GnwWCv2wDgY1An-50" style="rounded=0;orthogonalLoop=1;jettySize=auto;html=1;entryX=0.5;entryY=1;entryDx=0;entryDy=0;endArrow=none;endFill=0;" parent="1" source="Azhsq3GnwWCv2wDgY1An-48" target="Azhsq3GnwWCv2wDgY1An-38" edge="1">
          <mxGeometry relative="1" as="geometry" />
        </mxCell>
        <mxCell id="Azhsq3GnwWCv2wDgY1An-48" value="Image" style="ellipse;whiteSpace=wrap;html=1;align=center;" parent="1" vertex="1">
          <mxGeometry x="640" y="630" width="100" height="30" as="geometry" />
        </mxCell>
        <mxCell id="n3k5pTCZ1LAgwSPkUt6G-16" style="rounded=0;orthogonalLoop=1;jettySize=auto;html=1;entryX=1;entryY=0.25;entryDx=0;entryDy=0;endArrow=none;endFill=0;" parent="1" source="n3k5pTCZ1LAgwSPkUt6G-15" target="Azhsq3GnwWCv2wDgY1An-37" edge="1">
          <mxGeometry relative="1" as="geometry" />
        </mxCell>
        <mxCell id="n3k5pTCZ1LAgwSPkUt6G-15" value="Role" style="ellipse;whiteSpace=wrap;html=1;align=center;" parent="1" vertex="1">
          <mxGeometry x="290" y="480" width="70" height="27.5" as="geometry" />
        </mxCell>
        <mxCell id="n3k5pTCZ1LAgwSPkUt6G-29" style="rounded=0;orthogonalLoop=1;jettySize=auto;html=1;entryX=0.423;entryY=-0.007;entryDx=0;entryDy=0;endArrow=none;endFill=0;entryPerimeter=0;" parent="1" source="n3k5pTCZ1LAgwSPkUt6G-28" target="dTxI5dDR73npywH-p4hO-25" edge="1">
          <mxGeometry relative="1" as="geometry" />
        </mxCell>
        <mxCell id="n3k5pTCZ1LAgwSPkUt6G-28" value="OrderTelGive" style="ellipse;whiteSpace=wrap;html=1;align=center;" parent="1" vertex="1">
          <mxGeometry x="30" y="30" width="105" height="46.25" as="geometry" />
        </mxCell>
        <mxCell id="n3k5pTCZ1LAgwSPkUt6G-35" style="rounded=0;orthogonalLoop=1;jettySize=auto;html=1;entryX=0;entryY=0.5;entryDx=0;entryDy=0;endArrow=none;endFill=0;" parent="1" source="n3k5pTCZ1LAgwSPkUt6G-32" target="dTxI5dDR73npywH-p4hO-25" edge="1">
          <mxGeometry relative="1" as="geometry" />
        </mxCell>
        <mxCell id="n3k5pTCZ1LAgwSPkUt6G-32" value="UserGive" style="ellipse;whiteSpace=wrap;html=1;align=center;" parent="1" vertex="1">
          <mxGeometry x="10" y="100" width="100" height="40" as="geometry" />
        </mxCell>
        <mxCell id="n3k5pTCZ1LAgwSPkUt6G-37" style="rounded=0;orthogonalLoop=1;jettySize=auto;html=1;entryX=0.25;entryY=1;entryDx=0;entryDy=0;endArrow=none;endFill=0;" parent="1" source="n3k5pTCZ1LAgwSPkUt6G-36" target="dTxI5dDR73npywH-p4hO-25" edge="1">
          <mxGeometry relative="1" as="geometry" />
        </mxCell>
        <mxCell id="n3k5pTCZ1LAgwSPkUt6G-36" value="OrderTelReceive" style="ellipse;whiteSpace=wrap;html=1;align=center;" parent="1" vertex="1">
          <mxGeometry x="210" y="360" width="100" height="40" as="geometry" />
        </mxCell>
        <mxCell id="n3k5pTCZ1LAgwSPkUt6G-39" style="rounded=0;orthogonalLoop=1;jettySize=auto;html=1;entryX=-0.013;entryY=0.87;entryDx=0;entryDy=0;entryPerimeter=0;endArrow=none;endFill=0;" parent="1" source="n3k5pTCZ1LAgwSPkUt6G-38" target="dTxI5dDR73npywH-p4hO-25" edge="1">
          <mxGeometry relative="1" as="geometry" />
        </mxCell>
        <mxCell id="n3k5pTCZ1LAgwSPkUt6G-38" value="userReceive" style="ellipse;whiteSpace=wrap;html=1;align=center;" parent="1" vertex="1">
          <mxGeometry x="20" y="250" width="100" height="40" as="geometry" />
        </mxCell>
        <mxCell id="n3k5pTCZ1LAgwSPkUt6G-41" style="rounded=0;orthogonalLoop=1;jettySize=auto;html=1;endArrow=none;endFill=0;" parent="1" source="n3k5pTCZ1LAgwSPkUt6G-40" target="dTxI5dDR73npywH-p4hO-25" edge="1">
          <mxGeometry relative="1" as="geometry" />
        </mxCell>
        <mxCell id="n3k5pTCZ1LAgwSPkUt6G-40" value="OrderAddress&lt;br&gt;Receive" style="ellipse;whiteSpace=wrap;html=1;align=center;" parent="1" vertex="1">
          <mxGeometry x="180" y="220" width="112.5" height="50" as="geometry" />
        </mxCell>
        <mxCell id="n3k5pTCZ1LAgwSPkUt6G-43" value="" style="edgeStyle=elbowEdgeStyle;fontSize=12;html=1;endArrow=none;startArrow=ERmandOne;rounded=0;exitX=1;exitY=0.5;exitDx=0;exitDy=0;entryX=0;entryY=0.5;entryDx=0;entryDy=0;endFill=0;" parent="1" source="dTxI5dDR73npywH-p4hO-25" target="n3k5pTCZ1LAgwSPkUt6G-10" edge="1">
          <mxGeometry width="100" height="100" relative="1" as="geometry">
            <mxPoint x="220" y="170" as="sourcePoint" />
            <mxPoint x="365" y="110" as="targetPoint" />
          </mxGeometry>
        </mxCell>
        <mxCell id="n3k5pTCZ1LAgwSPkUt6G-10" value="Contain" style="rhombus;whiteSpace=wrap;html=1;" parent="1" vertex="1">
          <mxGeometry x="250" y="130" width="60" height="50" as="geometry" />
        </mxCell>
        <mxCell id="n3k5pTCZ1LAgwSPkUt6G-44" style="edgeStyle=none;rounded=0;orthogonalLoop=1;jettySize=auto;html=1;exitX=1;exitY=1;exitDx=0;exitDy=0;" parent="1" edge="1">
          <mxGeometry relative="1" as="geometry">
            <mxPoint x="143.75" y="302.5" as="sourcePoint" />
            <mxPoint x="143.75" y="302.5" as="targetPoint" />
          </mxGeometry>
        </mxCell>
        <mxCell id="n3k5pTCZ1LAgwSPkUt6G-47" value="" style="edgeStyle=elbowEdgeStyle;fontSize=12;html=1;endArrow=none;startArrow=ERmandOne;rounded=0;exitX=0;exitY=0.5;exitDx=0;exitDy=0;entryX=1;entryY=0.5;entryDx=0;entryDy=0;endFill=0;" parent="1" source="dTxI5dDR73npywH-p4hO-31" target="n3k5pTCZ1LAgwSPkUt6G-11" edge="1">
          <mxGeometry width="100" height="100" relative="1" as="geometry">
            <mxPoint x="550" y="180" as="sourcePoint" />
            <mxPoint x="465" y="110" as="targetPoint" />
          </mxGeometry>
        </mxCell>
        <mxCell id="n3k5pTCZ1LAgwSPkUt6G-11" value="have" style="rhombus;whiteSpace=wrap;html=1;" parent="1" vertex="1">
          <mxGeometry x="485" y="128.13" width="45" height="30" as="geometry" />
        </mxCell>
        <mxCell id="n3k5pTCZ1LAgwSPkUt6G-49" value="" style="edgeStyle=elbowEdgeStyle;fontSize=12;html=1;endArrow=none;startArrow=ERoneToMany;rounded=0;exitX=0.75;exitY=0;exitDx=0;exitDy=0;entryX=0.5;entryY=1;entryDx=0;entryDy=0;endFill=0;startFill=0;elbow=vertical;" parent="1" source="dTxI5dDR73npywH-p4hO-31" target="n3k5pTCZ1LAgwSPkUt6G-5" edge="1">
          <mxGeometry width="100" height="100" relative="1" as="geometry">
            <mxPoint x="640" y="150" as="sourcePoint" />
            <mxPoint x="590" y="90" as="targetPoint" />
          </mxGeometry>
        </mxCell>
        <mxCell id="n3k5pTCZ1LAgwSPkUt6G-5" value="Contain" style="rhombus;whiteSpace=wrap;html=1;" parent="1" vertex="1">
          <mxGeometry x="590" y="110" width="50" height="37.5" as="geometry" />
        </mxCell>
        <mxCell id="FLPZAjB7GGBSPu404l4g-5" style="rounded=0;orthogonalLoop=1;jettySize=auto;html=1;entryX=0.5;entryY=1;entryDx=0;entryDy=0;endArrow=none;endFill=0;" parent="1" source="FLPZAjB7GGBSPu404l4g-4" target="dTxI5dDR73npywH-p4hO-33" edge="1">
          <mxGeometry relative="1" as="geometry" />
        </mxCell>
        <mxCell id="FLPZAjB7GGBSPu404l4g-4" value="id(pk)" style="ellipse;whiteSpace=wrap;html=1;align=center;fontStyle=4;" parent="1" vertex="1">
          <mxGeometry x="380" y="240" width="70" height="30" as="geometry" />
        </mxCell>
        <mxCell id="FLPZAjB7GGBSPu404l4g-10" style="edgeStyle=orthogonalEdgeStyle;rounded=0;orthogonalLoop=1;jettySize=auto;html=1;entryX=-0.007;entryY=0.643;entryDx=0;entryDy=0;entryPerimeter=0;endArrow=none;endFill=0;" parent="1" source="FLPZAjB7GGBSPu404l4g-9" target="dTxI5dDR73npywH-p4hO-25" edge="1">
          <mxGeometry relative="1" as="geometry" />
        </mxCell>
        <mxCell id="FLPZAjB7GGBSPu404l4g-9" value="status" style="ellipse;whiteSpace=wrap;html=1;align=center;" parent="1" vertex="1">
          <mxGeometry x="10" y="160" width="70" height="40" as="geometry" />
        </mxCell>
        <mxCell id="FLPZAjB7GGBSPu404l4g-13" style="rounded=0;orthogonalLoop=1;jettySize=auto;html=1;entryX=0;entryY=0.75;entryDx=0;entryDy=0;endArrow=none;endFill=0;" parent="1" source="FLPZAjB7GGBSPu404l4g-12" target="dTxI5dDR73npywH-p4hO-30" edge="1">
          <mxGeometry relative="1" as="geometry" />
        </mxCell>
        <mxCell id="FLPZAjB7GGBSPu404l4g-12" value="cage_status" style="ellipse;whiteSpace=wrap;html=1;align=center;" parent="1" vertex="1">
          <mxGeometry x="360" y="70" width="100" height="40" as="geometry" />
        </mxCell>
        <mxCell id="FLPZAjB7GGBSPu404l4g-15" style="rounded=0;orthogonalLoop=1;jettySize=auto;html=1;entryX=1;entryY=0;entryDx=0;entryDy=0;endArrow=none;endFill=0;" parent="1" source="FLPZAjB7GGBSPu404l4g-14" target="Azhsq3GnwWCv2wDgY1An-37" edge="1">
          <mxGeometry relative="1" as="geometry" />
        </mxCell>
        <mxCell id="FLPZAjB7GGBSPu404l4g-14" value="status" style="ellipse;whiteSpace=wrap;html=1;align=center;" parent="1" vertex="1">
          <mxGeometry x="300" y="420" width="100" height="40" as="geometry" />
        </mxCell>
        <mxCell id="FLPZAjB7GGBSPu404l4g-23" style="rounded=0;orthogonalLoop=1;jettySize=auto;html=1;entryX=0.25;entryY=0;entryDx=0;entryDy=0;endArrow=none;endFill=0;" parent="1" source="FLPZAjB7GGBSPu404l4g-16" target="Azhsq3GnwWCv2wDgY1An-38" edge="1">
          <mxGeometry relative="1" as="geometry" />
        </mxCell>
        <mxCell id="FLPZAjB7GGBSPu404l4g-16" value="status" style="ellipse;whiteSpace=wrap;html=1;align=center;" parent="1" vertex="1">
          <mxGeometry x="440" y="400" width="100" height="40" as="geometry" />
        </mxCell>
        <mxCell id="FLPZAjB7GGBSPu404l4g-22" style="rounded=0;orthogonalLoop=1;jettySize=auto;html=1;entryX=0.25;entryY=1;entryDx=0;entryDy=0;endArrow=none;endFill=0;" parent="1" source="FLPZAjB7GGBSPu404l4g-17" target="Azhsq3GnwWCv2wDgY1An-38" edge="1">
          <mxGeometry relative="1" as="geometry" />
        </mxCell>
        <mxCell id="FLPZAjB7GGBSPu404l4g-17" value="Daycreated" style="ellipse;whiteSpace=wrap;html=1;align=center;" parent="1" vertex="1">
          <mxGeometry x="440" y="620" width="100" height="40" as="geometry" />
        </mxCell>
        <mxCell id="FLPZAjB7GGBSPu404l4g-21" style="rounded=0;orthogonalLoop=1;jettySize=auto;html=1;entryX=0.688;entryY=0.035;entryDx=0;entryDy=0;entryPerimeter=0;endArrow=none;endFill=0;" parent="1" source="FLPZAjB7GGBSPu404l4g-18" target="Azhsq3GnwWCv2wDgY1An-38" edge="1">
          <mxGeometry relative="1" as="geometry" />
        </mxCell>
        <mxCell id="FLPZAjB7GGBSPu404l4g-18" value="sumary" style="ellipse;whiteSpace=wrap;html=1;align=center;" parent="1" vertex="1">
          <mxGeometry x="560" y="400" width="100" height="40" as="geometry" />
        </mxCell>
        <mxCell id="FLPZAjB7GGBSPu404l4g-20" style="rounded=0;orthogonalLoop=1;jettySize=auto;html=1;entryX=0.864;entryY=-0.005;entryDx=0;entryDy=0;entryPerimeter=0;endArrow=none;endFill=0;" parent="1" source="FLPZAjB7GGBSPu404l4g-19" target="Azhsq3GnwWCv2wDgY1An-38" edge="1">
          <mxGeometry relative="1" as="geometry" />
        </mxCell>
        <mxCell id="FLPZAjB7GGBSPu404l4g-19" value="ID(pk)" style="ellipse;whiteSpace=wrap;html=1;align=center;fontStyle=4;" parent="1" vertex="1">
          <mxGeometry x="660" y="420" width="100" height="40" as="geometry" />
        </mxCell>
      </root>
    </mxGraphModel>
  </diagram>
</mxfile>
